<?xml version="1.0" encoding="iso-8859-1"?>

<!DOCTYPE svg PUBLIC "-//W3C//DTD SVG 1.1//EN" "http://www.w3.org/Graphics/SVG/1.1/DTD/svg11.dtd">
<!-- Uploaded to: SVG Repo, www.svgrepo.com, Generator: SVG Repo Mixer Tools -->
<svg version="1.1" id="_x34_" xmlns="http://www.w3.org/2000/svg" xmlns:xlink="http://www.w3.org/1999/xlink" 
	 viewBox="0 0 512 512"  xml:space="preserve">
<g>
	<g>
		<path style="fill:#484747;" d="M510.772,9.286c0,0,0-0.077-0.077-0.154c-1.535-3.53-4.297-6.293-7.828-7.827
			c-0.077-0.077-0.154-0.077-0.154-0.077C500.873,0.46,498.878,0,496.806,0H15.194C6.829,0,0,6.83,0,15.195v294.139
			c0,2.533,0.614,4.911,1.688,6.983c1.458,2.839,3.76,5.141,6.599,6.599c2.072,1.075,4.451,1.689,6.907,1.689h481.612
			c8.364,0,15.194-6.83,15.194-15.271V15.195C512,13.123,511.54,11.127,510.772,9.286z M37.449,231.06
			c-1.919,0-3.607-0.537-5.065-1.458c-2.532-1.612-4.297-4.374-4.451-7.521V93.238c0-5.218,4.297-9.439,9.516-9.439h437.103
			c5.218,0,9.516,4.221,9.516,9.439v128.307c0,5.219-4.297,9.516-9.516,9.516H37.449z"/>
		<path style="fill:#FFFFFF;" d="M479.445,63.458H32.555c-2.546,0-4.629-2.083-4.629-4.629V33.161c0-2.546,2.083-4.629,4.629-4.629
			h446.89c2.546,0,4.629,2.083,4.629,4.629V58.83C484.074,61.375,481.991,63.458,479.445,63.458z"/>
		<path style="fill:#5EABB6;" d="M118.49,28.528v34.934H32.556c-2.553,0-4.635-2.083-4.635-4.635V33.163
			c0-2.552,2.082-4.635,4.635-4.635H118.49z"/>
		<rect x="228.796" y="135.274" style="fill:#E0E0E0;" width="73.282" height="49.522"/>
		<path style="fill:#454545;" d="M259.084,159.485c0,28.267-11.987,53.727-31.149,71.581H94.575
			c-19.162-17.854-31.149-43.315-31.149-71.581c0-30.527,13.981-57.778,35.873-75.721h123.912
			C245.103,101.707,259.084,128.958,259.084,159.485z"/>
		<circle style="fill:#454545;" cx="350.751" cy="159.484" r="62.426"/>
		<g>
			<g>
				<path style="fill:#FFFFFF;" d="M171.701,196.746c0,0,0.724-0.232,1.991-0.638c0.316-0.102,0.667-0.214,1.049-0.337
					c0.376-0.137,0.768-0.325,1.195-0.504c0.84-0.388,1.831-0.738,2.832-1.283c4.087-2.011,9.058-5.726,12.817-10.521
					c1.012-1.14,1.764-2.472,2.615-3.701c0.793-1.267,1.43-2.601,2.104-3.854c0.529-1.322,1.107-2.577,1.53-3.812
					c0.367-1.253,0.757-2.428,1.036-3.532c0.218-1.119,0.417-2.145,0.594-3.054c0.188-0.908,0.188-1.722,0.271-2.381
					c0.12-1.324,0.188-2.081,0.188-2.081l6.383,0.259c0,0-0.077,0.88-0.212,2.42c-0.093,0.768-0.108,1.711-0.32,2.77
					c-0.206,1.059-0.439,2.255-0.694,3.558c-0.323,1.288-0.769,2.66-1.207,4.119c-0.494,1.439-1.158,2.908-1.787,4.444
					c-0.774,1.467-1.528,3.017-2.45,4.494c-0.98,1.44-1.877,2.978-3.044,4.313c-4.376,5.587-10.167,9.903-14.928,12.25
					c-1.168,0.63-2.318,1.051-3.3,1.497c-0.498,0.208-0.957,0.422-1.395,0.582c-0.445,0.145-0.853,0.278-1.221,0.398
					c-1.478,0.472-2.322,0.741-2.322,0.741L171.701,196.746z"/>
				<path style="fill:#FFFFFF;" d="M188.595,173.159c0,0,0.096-0.178,0.266-0.488c0.167-0.312,0.329-0.793,0.567-1.35
					c0.211-0.567,0.547-1.197,0.758-1.925c0.218-0.725,0.451-1.499,0.684-2.273c0.208-0.781,0.312-1.587,0.475-2.327
					c0.067-0.373,0.163-0.728,0.202-1.075c0.03-0.348,0.057-0.676,0.082-0.98c0.116-1.212,0.193-2.02,0.193-2.02l11.292,0.457
					c0,0-0.099,1.103-0.247,2.757c-0.039,0.413-0.081,0.861-0.126,1.335c-0.057,0.472-0.174,0.962-0.265,1.473
					c-0.21,1.017-0.377,2.117-0.66,3.188c-0.319,1.063-0.638,2.125-0.938,3.12c-0.302,0.995-0.735,1.87-1.033,2.646
					c-0.326,0.765-0.567,1.417-0.79,1.848c-0.227,0.429-0.356,0.674-0.356,0.674L188.595,173.159z"/>
			</g>
			<g>
				<path style="fill:#FFFFFF;" d="M129.057,180.93c0,0,0.43,0.626,1.183,1.722c0.385,0.541,0.933,1.138,1.518,1.855
					c0.298,0.355,0.614,0.733,0.948,1.131c0.354,0.379,0.754,0.753,1.156,1.156c3.176,3.256,8.216,6.873,13.938,8.984
					c5.703,2.192,11.901,2.629,16.428,2.282c1.133-0.127,2.171-0.242,3.092-0.345c0.912-0.158,1.698-0.352,2.349-0.484
					c0.65-0.14,1.161-0.25,1.509-0.325c0.34-0.104,0.522-0.16,0.522-0.16l1.725,6.151c0,0-0.212,0.064-0.61,0.184
					c-0.406,0.089-1.001,0.219-1.759,0.385c-0.759,0.156-1.677,0.377-2.74,0.559c-1.073,0.12-2.283,0.257-3.603,0.405
					c-5.267,0.41-12.471-0.108-19.13-2.66c-6.678-2.456-12.548-6.675-16.245-10.464c-0.468-0.469-0.93-0.908-1.341-1.35
					c-0.39-0.462-0.76-0.9-1.108-1.312c-0.685-0.833-1.313-1.534-1.764-2.163c-0.879-1.275-1.382-2.003-1.382-2.003L129.057,180.93z
					"/>
				<path style="fill:#FFFFFF;" d="M156.671,189.737c0,0,3.225,0.438,6.476,0.295c1.605-0.209,3.226-0.303,4.398-0.637
					c0.593-0.124,1.087-0.228,1.433-0.3c0.347-0.07,0.533-0.154,0.533-0.154l3.052,10.882c0,0-0.259,0.105-0.733,0.208
					c-0.474,0.103-1.152,0.249-1.965,0.425c-1.614,0.429-3.828,0.614-6.031,0.858c-4.434,0.228-8.835-0.399-8.835-0.399
					L156.671,189.737z"/>
			</g>
			<g>
				<path style="fill:#FFFFFF;" d="M130.897,135.501c0,0-0.12,0.147-0.344,0.424c-0.226,0.275-0.565,0.674-0.917,1.24
					c-0.368,0.554-0.815,1.227-1.327,1.998c-0.535,0.758-0.956,1.723-1.513,2.716c-2.109,4.03-4,9.941-4.237,16.036
					c-0.257,6.094,1.149,12.139,2.925,16.327c0.475,1.035,0.817,2.031,1.289,2.829c0.448,0.81,0.839,1.517,1.161,2.099
					c0.305,0.592,0.61,1.017,0.814,1.31c0.201,0.294,0.309,0.451,0.309,0.451l-5.313,3.546c0,0-0.125-0.183-0.358-0.525
					c-0.235-0.342-0.587-0.839-0.948-1.526c-0.375-0.678-0.83-1.501-1.352-2.446c-0.541-0.935-0.957-2.087-1.504-3.297
					c-0.572-1.203-0.979-2.587-1.445-4.038c-0.518-1.437-0.801-3.022-1.155-4.646c-0.085-0.407-0.17-0.817-0.256-1.23
					c-0.049-0.419-0.099-0.84-0.149-1.265c-0.094-0.849-0.188-1.709-0.284-2.575c-0.148-1.734-0.087-3.506-0.116-5.272
					c0.172-1.758,0.253-3.529,0.542-5.245c0.165-0.856,0.329-1.705,0.492-2.544c0.084-0.419,0.167-0.835,0.25-1.248
					c0.119-0.405,0.238-0.807,0.355-1.205c0.484-1.59,0.895-3.147,1.527-4.538c0.583-1.408,1.1-2.755,1.767-3.908
					c0.643-1.162,1.152-2.277,1.766-3.165c0.597-0.899,1.118-1.683,1.546-2.328c0.415-0.655,0.806-1.122,1.068-1.444
					c0.261-0.323,0.4-0.495,0.4-0.495L130.897,135.501z"/>
				<path style="fill:#FFFFFF;" d="M131.046,164.504c0,0,0.172,0.789,0.43,1.974c0.063,0.296,0.13,0.618,0.202,0.957
					c0.109,0.33,0.223,0.678,0.341,1.038c0.26,0.711,0.417,1.513,0.769,2.243c0.32,0.743,0.64,1.486,0.94,2.182
					c0.367,0.664,0.71,1.283,1.004,1.815c0.285,0.536,0.529,0.979,0.75,1.259c0.202,0.291,0.317,0.457,0.317,0.457l-9.399,6.275
					c0,0-0.157-0.229-0.43-0.629c-0.291-0.389-0.635-0.99-1.032-1.721c-0.399-0.729-0.865-1.58-1.363-2.491
					c-0.414-0.954-0.855-1.971-1.296-2.989c-0.463-1.009-0.719-2.097-1.062-3.078c-0.157-0.496-0.309-0.974-0.453-1.429
					c-0.104-0.465-0.201-0.905-0.291-1.311c-0.347-1.627-0.578-2.712-0.578-2.712L131.046,164.504z"/>
			</g>
			<g>
				<path style="fill:#FFFFFF;" d="M174.681,123.187c0,0-0.176-0.07-0.507-0.201c-0.341-0.103-0.842-0.254-1.478-0.446
					c-0.639-0.184-1.406-0.441-2.302-0.673c-0.909-0.177-1.935-0.376-3.054-0.594c-4.484-0.712-10.698-0.778-16.558,0.945
					c-5.875,1.64-11.191,4.838-14.62,7.826c-0.434,0.369-0.863,0.709-1.246,1.059c-0.365,0.37-0.711,0.72-1.036,1.05
					c-0.642,0.667-1.236,1.218-1.663,1.726c-0.839,1.031-1.319,1.621-1.319,1.621l-5.008-3.964c0,0,0.56-0.686,1.539-1.885
					c0.5-0.59,1.184-1.238,1.933-2.013c0.38-0.383,0.784-0.789,1.211-1.218c0.445-0.408,0.941-0.807,1.446-1.237
					c3.992-3.478,10.183-7.208,17.038-9.116c6.843-2.005,14.066-1.938,19.283-1.104c1.304,0.255,2.499,0.488,3.558,0.695
					c1.045,0.267,1.942,0.562,2.686,0.779c0.742,0.227,1.325,0.405,1.722,0.526c0.386,0.151,0.593,0.232,0.593,0.232
					L174.681,123.187z"/>
				<path style="fill:#FFFFFF;" d="M147.162,132.335c0,0-0.709,0.39-1.772,0.977c-0.527,0.301-1.087,0.742-1.721,1.159
					c-0.314,0.214-0.637,0.436-0.967,0.661c-0.304,0.258-0.613,0.521-0.922,0.783c-1.296,0.983-2.369,2.207-3.242,3.053
					c-0.77,0.939-1.284,1.565-1.284,1.565l-8.862-7.014c0,0,0.683-0.874,1.765-2.133c1.171-1.178,2.667-2.821,4.422-4.182
					c0.425-0.355,0.851-0.709,1.27-1.058c0.447-0.312,0.887-0.619,1.314-0.916c0.863-0.578,1.642-1.16,2.359-1.577
					c1.454-0.806,2.424-1.343,2.424-1.343L147.162,132.335z"/>
			</g>
			<g>
				<path style="fill:#FFFFFF;" d="M199.923,161.05c0,0-0.007-0.76-0.019-2.089c-0.03-0.664,0.037-1.475-0.077-2.395
					c-0.102-0.92-0.218-1.959-0.345-3.092c-0.189-1.123-0.482-2.325-0.747-3.604c-0.322-1.264-0.797-2.562-1.217-3.923
					c-0.571-1.303-1.098-2.685-1.786-4.012c-0.748-1.294-1.391-2.682-2.307-3.9c-3.359-5.084-8.014-9.189-11.924-11.524
					c-0.953-0.624-1.913-1.053-2.719-1.507c-0.411-0.213-0.787-0.432-1.15-0.599c-0.37-0.153-0.71-0.294-1.018-0.421
					c-1.23-0.507-1.933-0.797-1.933-0.797l2.217-5.991c0,0,0.82,0.337,2.255,0.926c0.358,0.15,0.754,0.315,1.185,0.496
					c0.424,0.195,0.864,0.445,1.344,0.693c0.943,0.524,2.055,1.037,3.169,1.759c4.556,2.724,9.978,7.494,13.888,13.417
					c1.055,1.425,1.824,3.031,2.684,4.545c0.8,1.547,1.425,3.153,2.079,4.678c0.502,1.582,1.045,3.1,1.421,4.574
					c0.318,1.489,0.652,2.893,0.87,4.203c0.148,1.32,0.283,2.53,0.403,3.603c0.125,1.073,0.064,2.014,0.095,2.787
					c0.009,1.546,0.015,2.43,0.015,2.43L199.923,161.05z"/>
				<path style="fill:#FFFFFF;" d="M182.689,137.709c0,0-2.262-2.359-5.05-4.033c-0.652-0.486-1.386-0.831-2.053-1.189
					c-0.674-0.345-1.274-0.731-1.852-0.924c-1.12-0.464-1.867-0.772-1.867-0.772l3.923-10.599c0,0,1.025,0.423,2.563,1.057
					c0.784,0.285,1.62,0.785,2.543,1.262c0.917,0.491,1.911,0.987,2.814,1.633c0.915,0.625,1.869,1.197,2.687,1.837
					c0.806,0.655,1.559,1.266,2.204,1.79c0.662,0.505,1.127,1.023,1.48,1.355c0.345,0.34,0.543,0.534,0.543,0.534L182.689,137.709z"
					/>
			</g>
		</g>
		<g>
			<g>
				<path style="fill:#FFFFFF;" d="M318.015,180.135c0,0,0.428,0.627,1.179,1.726c0.188,0.274,0.395,0.578,0.622,0.909
					c0.239,0.321,0.53,0.644,0.824,1.002c0.611,0.695,1.229,1.545,2.037,2.349c3.093,3.344,8.07,7.05,13.739,9.286
					c1.381,0.645,2.872,0.986,4.293,1.451c1.441,0.398,2.901,0.629,4.294,0.918c1.418,0.13,2.786,0.326,4.09,0.38
					c1.306-0.006,2.543,0.034,3.68-0.014c1.134-0.111,2.174-0.212,3.096-0.301c0.924-0.079,1.704-0.311,2.359-0.419
					c1.303-0.263,2.048-0.412,2.048-0.412l1.572,6.191c0,0-0.866,0.177-2.381,0.487c-0.762,0.129-1.671,0.384-2.746,0.483
					c-1.074,0.104-2.286,0.221-3.609,0.35c-1.326,0.057-2.769,0.021-4.292,0.018c-1.52-0.063-3.117-0.281-4.769-0.445
					c-1.626-0.324-3.327-0.604-5.006-1.067c-1.659-0.529-3.389-0.95-5.002-1.688c-6.603-2.602-12.391-6.921-15.997-10.816
					c-0.937-0.941-1.669-1.923-2.377-2.737c-0.341-0.418-0.677-0.797-0.955-1.171c-0.266-0.384-0.51-0.738-0.73-1.057
					c-0.873-1.282-1.372-2.015-1.372-2.015L318.015,180.135z"/>
				<path style="fill:#FFFFFF;" d="M345.439,189.603c0,0,0.198,0.042,0.544,0.115c0.347,0.071,0.854,0.089,1.456,0.159
					c0.604,0.04,1.303,0.183,2.061,0.178c0.758,0.003,1.566,0.005,2.373,0.008c0.808-0.023,1.611-0.153,2.366-0.208
					c0.377-0.042,0.745-0.051,1.088-0.113c0.341-0.071,0.664-0.138,0.962-0.201c1.195-0.234,1.992-0.391,1.992-0.391l2.781,10.954
					c0,0-1.085,0.22-2.713,0.55c-0.408,0.08-0.848,0.168-1.315,0.26c-0.469,0.08-0.972,0.108-1.488,0.166
					c-1.035,0.088-2.136,0.242-3.243,0.276c-1.109-0.003-2.218-0.006-3.258-0.009c-1.04-0.006-2.002-0.171-2.831-0.236
					c-0.826-0.094-1.52-0.139-1.996-0.231c-0.476-0.095-0.748-0.149-0.748-0.149L345.439,189.603z"/>
			</g>
			<g>
				<path style="fill:#FFFFFF;" d="M321.017,134.751c0,0-0.478,0.591-1.314,1.625c-0.409,0.524-0.825,1.219-1.345,1.984
					c-0.255,0.386-0.527,0.798-0.813,1.231c-0.263,0.447-0.507,0.937-0.779,1.438c-2.215,3.973-4.246,9.834-4.637,15.921
					c-0.475,6.09,0.874,12.157,2.497,16.396c0.444,1.05,0.851,2.012,1.212,2.865c0.411,0.829,0.822,1.526,1.134,2.113
					c0.319,0.583,0.57,1.042,0.742,1.354c0.197,0.296,0.302,0.455,0.302,0.455l-5.403,3.407c0,0-0.122-0.185-0.35-0.532
					c-0.201-0.364-0.496-0.897-0.871-1.576c-0.366-0.683-0.839-1.5-1.316-2.467c-0.421-0.993-0.896-2.115-1.415-3.338
					c-1.895-4.932-3.452-11.985-2.904-19.095c0.45-7.102,2.821-13.93,5.399-18.554c0.316-0.583,0.605-1.151,0.911-1.671
					c0.331-0.506,0.646-0.985,0.942-1.436c0.603-0.893,1.096-1.696,1.57-2.307c0.971-1.206,1.526-1.895,1.526-1.895L321.017,134.751
					z"/>
				<path style="fill:#FFFFFF;" d="M320.448,163.731c0,0,0.5,3.216,1.563,6.291c0.658,1.479,1.211,3.006,1.865,4.033
					c0.288,0.533,0.528,0.977,0.697,1.289c0.166,0.312,0.3,0.467,0.3,0.467l-9.56,6.028c0,0-0.175-0.218-0.409-0.643
					c-0.234-0.425-0.567-1.033-0.968-1.762c-0.872-1.425-1.68-3.494-2.541-5.536c-1.483-4.185-2.137-8.582-2.137-8.582
					L320.448,163.731z"/>
			</g>
			<g>
				<path style="fill:#FFFFFF;" d="M365.085,123.564c0,0-0.175-0.073-0.505-0.209c-0.328-0.138-0.807-0.35-1.449-0.526
					c-0.636-0.195-1.408-0.431-2.293-0.702c-0.879-0.297-1.924-0.425-3.035-0.676c-4.464-0.873-10.669-1-16.579,0.511
					c-5.914,1.491-11.308,4.562-14.815,7.458c-0.857,0.751-1.713,1.362-2.345,2.042c-0.649,0.661-1.215,1.237-1.68,1.712
					c-0.482,0.461-0.801,0.875-1.024,1.153c-0.224,0.277-0.344,0.424-0.344,0.424l-4.914-4.081c0,0,0.14-0.172,0.402-0.493
					c0.261-0.323,0.637-0.801,1.192-1.343c0.543-0.553,1.202-1.224,1.958-1.994c0.742-0.785,1.728-1.512,2.732-2.382
					c0.991-0.89,2.201-1.675,3.458-2.536c1.229-0.906,2.668-1.63,4.124-2.432c0.366-0.197,0.734-0.396,1.106-0.596
					c0.387-0.166,0.777-0.334,1.17-0.503c0.788-0.332,1.584-0.668,2.387-1.007c1.62-0.637,3.336-1.083,5.02-1.613
					c1.734-0.337,3.454-0.763,5.182-0.976c0.868-0.085,1.729-0.17,2.579-0.254c0.426-0.039,0.849-0.077,1.268-0.116
					c0.422-0.001,0.841-0.002,1.256-0.003c1.662,0.011,3.271-0.04,4.785,0.17c1.515,0.157,2.954,0.269,4.249,0.58
					c1.297,0.286,2.51,0.454,3.537,0.791c1.032,0.316,1.931,0.591,2.672,0.818c0.747,0.211,1.306,0.452,1.689,0.612
					c0.383,0.157,0.588,0.242,0.588,0.242L365.085,123.564z"/>
				<path style="fill:#FFFFFF;" d="M337.328,131.975c0,0-0.707,0.39-1.769,0.975c-0.267,0.144-0.555,0.301-0.86,0.467
					c-0.285,0.198-0.586,0.407-0.897,0.623c-0.607,0.451-1.331,0.831-1.931,1.377c-0.62,0.518-1.241,1.036-1.823,1.522
					c-0.532,0.541-1.028,1.046-1.453,1.48c-0.433,0.426-0.788,0.786-0.993,1.078c-0.221,0.277-0.348,0.435-0.348,0.435l-8.694-7.221
					c0,0,0.175-0.215,0.48-0.591c0.29-0.39,0.768-0.891,1.356-1.48c0.585-0.59,1.268-1.279,1.999-2.017
					c0.796-0.668,1.646-1.381,2.495-2.094c0.835-0.732,1.805-1.287,2.647-1.896c0.43-0.292,0.846-0.574,1.24-0.842
					c0.417-0.231,0.81-0.45,1.174-0.652c1.461-0.796,2.435-1.327,2.435-1.327L337.328,131.975z"/>
			</g>
			<g>
				<path style="fill:#FFFFFF;" d="M389.371,162.02c0,0,0.017-0.189,0.048-0.544c0.001-0.356,0.003-0.879,0.006-1.544
					c-0.006-0.665,0.022-1.474-0.011-2.398c-0.09-0.922-0.191-1.962-0.301-3.096c-0.596-4.501-2.304-10.475-5.627-15.602
					c-3.247-5.163-7.828-9.347-11.67-11.782c-0.478-0.31-0.926-0.625-1.37-0.892c-0.458-0.244-0.893-0.476-1.302-0.694
					c-0.822-0.425-1.52-0.837-2.129-1.103c-1.228-0.51-1.93-0.802-1.93-0.802l2.372-5.931c0,0,0.816,0.341,2.245,0.938
					c0.708,0.311,1.524,0.782,2.48,1.279c0.475,0.255,0.98,0.527,1.513,0.813c0.518,0.311,1.042,0.672,1.598,1.034
					c4.471,2.835,9.812,7.706,13.595,13.732c3.872,5.988,5.868,12.93,6.556,18.168c0.128,1.322,0.244,2.534,0.348,3.608
					c0.042,1.078,0.015,2.021,0.02,2.797c-0.006,0.775-0.011,1.385-0.014,1.8c-0.035,0.414-0.054,0.634-0.054,0.634L389.371,162.02z
					"/>
				<path style="fill:#FFFFFF;" d="M372.756,138.25c0,0-0.577-0.568-1.441-1.42c-0.439-0.419-1.021-0.83-1.601-1.319
					c-0.295-0.239-0.6-0.486-0.91-0.738c-0.334-0.218-0.674-0.44-1.013-0.661c-1.312-0.962-2.791-1.641-3.85-2.237
					c-1.12-0.471-1.867-0.784-1.867-0.784l4.197-10.493c0,0,1.032,0.406,2.549,1.083c1.462,0.787,3.464,1.752,5.269,3.047
					c0.461,0.307,0.922,0.613,1.376,0.915c0.427,0.34,0.846,0.674,1.252,0.998c0.8,0.662,1.58,1.243,2.184,1.812
					c1.187,1.164,1.979,1.94,1.979,1.94L372.756,138.25z"/>
			</g>
			<g>
				<path style="fill:#FFFFFF;" d="M360.276,197.009c0,0,0.726-0.224,1.997-0.615c0.628-0.218,1.424-0.385,2.273-0.757
					c0.853-0.361,1.816-0.768,2.866-1.212c1.022-0.501,2.091-1.125,3.241-1.743c1.121-0.669,2.229-1.494,3.413-2.285
					c1.086-0.919,2.26-1.818,3.336-2.855c1.027-1.086,2.175-2.097,3.081-3.323c3.915-4.669,6.523-10.301,7.646-14.715
					c0.326-1.092,0.464-2.134,0.669-3.036c0.087-0.455,0.189-0.877,0.246-1.273c0.041-0.399,0.079-0.765,0.114-1.095
					c0.135-1.324,0.213-2.079,0.213-2.079l6.374,0.417c0,0-0.089,0.882-0.245,2.426c-0.042,0.385-0.088,0.812-0.138,1.277
					c-0.066,0.462-0.18,0.955-0.281,1.486c-0.233,1.053-0.408,2.265-0.783,3.539c-1.312,5.143-4.339,11.701-8.901,17.137
					c-1.065,1.418-2.386,2.612-3.591,3.869c-1.255,1.207-2.616,2.265-3.891,3.326c-1.374,0.933-2.673,1.886-3.98,2.666
					c-1.336,0.729-2.588,1.45-3.781,2.032c-1.223,0.518-2.344,0.993-3.338,1.414c-0.992,0.426-1.912,0.635-2.644,0.885
					c-1.479,0.45-2.325,0.707-2.325,0.707L360.276,197.009z"/>
				<path style="fill:#FFFFFF;" d="M377.734,173.836c0,0,1.616-2.841,2.425-5.99c0.281-0.763,0.402-1.565,0.555-2.307
					c0.138-0.745,0.337-1.429,0.357-2.038c0.125-1.206,0.208-2.009,0.208-2.009l11.277,0.738c0,0-0.113,1.103-0.282,2.759
					c-0.05,0.833-0.29,1.776-0.485,2.798c-0.209,1.018-0.401,2.112-0.763,3.163c-0.339,1.055-0.615,2.132-0.995,3.098
					c-0.398,0.96-0.769,1.855-1.087,2.623c-0.296,0.778-0.659,1.371-0.877,1.804c-0.228,0.428-0.358,0.672-0.358,0.672
					L377.734,173.836z"/>
			</g>
		</g>
		<g>
			<path style="fill:#454545;" d="M93.509,125.597L32.365,229.585c-2.527-1.587-4.254-4.343-4.419-7.505l58.997-100.344
				L93.509,125.597z"/>
		</g>
		<g>
			<polygon style="fill:#454545;" points="457.02,231.07 399.001,132.39 405.566,128.53 465.858,231.07 			"/>
		</g>
		<path style="fill:#303030;" d="M393.574,324.619H131.587c-3.042,0-5.531-2.489-5.531-5.531l27.394-48.632
			c0-3.042,2.489-5.531,5.531-5.531H366.18c3.042,0,5.531,2.489,5.531,5.531l27.394,48.632
			C399.106,322.13,396.616,324.619,393.574,324.619z"/>
		<circle style="fill:#989199;" cx="38.841" cy="293.698" r="10.915"/>
		<circle style="fill:#D6D4D6;" cx="174.77" cy="293.698" r="5.457"/>
		<circle style="fill:#D6D4D6;" cx="350.811" cy="293.698" r="5.457"/>
		<circle style="fill:#989199;" cx="490.641" cy="293.698" r="10.915"/>
	</g>
	<path style="opacity:0.1;fill:#FFFFFF;" d="M227.941,231.06c13.214-12.313,22.891-28.293,27.702-46.265H256v-49.522h-0.033
		c-5.229-20.506-16.849-38.455-32.717-51.475H256V0H15.194C6.829,0,0,6.83,0,15.195v294.139c0,2.533,0.614,4.911,1.688,6.983
		c1.458,2.839,3.76,5.141,6.599,6.599c2.072,1.075,4.451,1.689,6.907,1.689h116.322c0.025,0,0.046,0.014,0.072,0.014H256V231.06
		H227.941z M37.449,231.06c-1.919,0-3.607-0.537-5.065-1.458c-0.249-0.158-0.451-0.375-0.685-0.555
		c0.228,0.173,0.423,0.385,0.667,0.537l32.351-55.021c3.437,22.156,14.18,41.892,29.852,56.497H37.449z M63.426,159.485
		c0,0.697,0.095,1.37,0.109,2.064L27.946,222.08c0.082,1.581,0.555,3.059,1.323,4.342c-0.779-1.287-1.26-2.765-1.337-4.34V93.238
		c0-5.218,4.297-9.439,9.516-9.439h61.812C77.392,101.742,63.426,128.977,63.426,159.485z"/>
</g>
</svg>